<svg width="56" height="56" viewBox="0 0 56 56" fill="none" xmlns="http://www.w3.org/2000/svg">
<g filter="url(#filter0_d_2_116)">
<path d="M4 24C4 10.7452 14.7452 0 28 0C41.2548 0 52 10.7452 52 24C52 37.2548 41.2548 48 28 48C14.7452 48 4 37.2548 4 24Z" fill="#3A5F56" fill-opacity="0.1"/>
<g clip-path="url(#clip0_2_116)">
<path d="M27.636 12C28.2359 12 28.7557 12.48 28.7557 13.12V15.4C28.7557 16.12 28.5158 16.84 28.1159 17.44C28.5158 18.04 28.7557 18.76 28.7557 19.48V21.08C28.7557 21.68 28.2758 22.2 27.636 22.2C25.9965 22.2 24.557 21.08 24.1171 19.52C23.6772 19.68 23.2773 20 22.8775 20.44C22.5975 20.8 22.5176 21.32 22.7575 21.76C22.9974 22.2 23.3973 22.48 23.9171 22.48C24.1571 22.48 24.317 22.64 24.317 22.88C24.317 23.12 24.1571 23.28 23.9171 23.28C23.1174 23.28 22.3976 22.84 22.0377 22.12C21.6778 21.4 21.7978 20.56 22.2776 19.92C22.9574 19.2 23.5972 18.76 24.357 18.6C24.477 18.56 24.5969 18.56 24.6769 18.64C24.7569 18.72 24.8369 18.8 24.8369 18.92C25.0368 20.36 26.2365 21.4 27.676 21.4C27.836 21.4 27.9959 21.24 27.9959 21.08V19.48C27.9959 18.84 27.756 18.2 27.3561 17.72C27.2362 17.56 27.2362 17.36 27.3561 17.2C27.756 16.72 27.9959 16.08 27.9959 15.44V13.12C27.9959 12.96 27.836 12.8 27.676 12.8C26.0765 12.8 24.7969 14.12 24.7969 15.68C24.7969 16.04 24.397 16.08 24.2371 16.08C22.2377 16.24 20.5182 17 19.1186 18.4C17.0792 20.4 16.3194 23.28 17.0392 26C17.759 28.8 19.8784 30.92 22.6375 31.64C22.7575 31.68 22.8775 31.76 22.9174 31.88C22.9574 32 22.9574 32.12 22.8775 32.24C22.0777 33.4 21.3179 33.96 20.6381 34.48L20.5182 34.6C20.3182 34.72 20.3582 34.88 20.3982 34.96C20.4382 35.04 20.5182 35.2 20.7181 35.2C23.3573 35.2 25.8366 34.04 27.5161 32.04C27.596 31.92 27.716 31.88 27.836 31.88L29.7154 31.92C34.474 31.92 38.5528 28.4 39.1926 23.64C39.1926 23.52 39.1526 23.44 39.1126 23.4C39.0726 23.36 38.9926 23.28 38.8727 23.28H30.2752C30.0353 23.28 29.8754 23.12 29.8754 22.88C29.8754 22.64 30.0353 22.48 30.2752 22.48H38.8727C39.1926 22.48 39.5125 22.64 39.7124 22.88C39.9124 23.16 40.0323 23.48 39.9923 23.76C39.3125 28.88 34.9139 32.72 29.7554 32.72H28.0359C26.1965 34.8 23.5573 36 20.7581 36C20.2382 36 19.8384 35.72 19.6784 35.24C19.5185 34.8 19.6784 34.28 20.0783 34L20.2382 33.88C20.7981 33.44 21.3579 33.04 21.9577 32.28C19.1586 31.32 17.0792 29.12 16.3194 26.24C15.4797 23.2 16.3194 20.04 18.5588 17.8C20.0383 16.32 21.8778 15.48 23.9971 15.28C24.1571 13.44 25.7566 12 27.636 12ZM35.3537 24.76C35.9136 24.76 36.3934 25.24 36.3934 25.8C36.3934 26.36 35.9136 26.8 35.3537 26.84C34.7939 26.84 34.314 26.36 34.314 25.8C34.314 25.24 34.7939 24.76 35.3537 24.76Z" fill="#3A5F56"/>
</g>
</g>
<defs>
<filter id="filter0_d_2_116" x="0" y="0" width="56" height="56" filterUnits="userSpaceOnUse" color-interpolation-filters="sRGB">
<feFlood flood-opacity="0" result="BackgroundImageFix"/>
<feColorMatrix in="SourceAlpha" type="matrix" values="0 0 0 0 0 0 0 0 0 0 0 0 0 0 0 0 0 0 127 0" result="hardAlpha"/>
<feOffset dy="4"/>
<feGaussianBlur stdDeviation="2"/>
<feComposite in2="hardAlpha" operator="out"/>
<feColorMatrix type="matrix" values="0 0 0 0 0 0 0 0 0 0 0 0 0 0 0 0 0 0 0.25 0"/>
<feBlend mode="normal" in2="BackgroundImageFix" result="effect1_dropShadow_2_116"/>
<feBlend mode="normal" in="SourceGraphic" in2="effect1_dropShadow_2_116" result="shape"/>
</filter>
<clipPath id="clip0_2_116">
<rect width="24" height="24" fill="white" transform="translate(16 12)"/>
</clipPath>
</defs>
</svg>
